<?xml version="1.0" encoding="UTF-8"?>
<svg version="1.1" xmlns="http://www.w3.org/2000/svg" width="32" height="32">
<path d="M0 0 C4.8846525 2.26787438 7.73212562 5.1153475 10 10 C10.75381535 15.5997712 10.77303575 20.33499991 8.375 25.5 C3.80134327 30.3143755 0.6912538 32.25156236 -6 32.5 C-12.6912538 32.25156236 -15.80134327 30.3143755 -20.375 25.5 C-22.77303575 20.33499991 -22.75381535 15.5997712 -22 10 C-17.52212837 0.3553534 -9.85292056 -1.32635469 0 0 Z " fill="#A6CE39" transform="translate(22,0)"/>
<path d="M0 0 C7.07858428 -0.47990402 7.07858428 -0.47990402 11 1.5625 C13 4 13 4 13.625 7.5 C13 11 13 11 11 13.4375 C7.00764582 15.51685114 4.45909693 15.30231166 0 15 C0 10.05 0 5.1 0 0 Z " fill="#EDF5D7" transform="translate(13,9)"/>
<path d="M0 0 C2.31 0.33 4.62 0.66 7 1 C7.625 3.3125 7.625 3.3125 8 6 C7.01 7.485 7.01 7.485 6 9 C2.875 9.1875 2.875 9.1875 0 9 C0 6.03 0 3.06 0 0 Z " fill="#A9CF40" transform="translate(16,12)"/>
<path d="M0 0 C0.99 0 1.98 0 3 0 C3 5.94 3 11.88 3 18 C2.01 18 1.02 18 0 18 C0 12.06 0 6.12 0 0 Z " fill="#E9F2CE" transform="translate(8,6)"/>
</svg>
