<?xml version="1.0" encoding="UTF-8"?>
<svg version="1.1" xmlns="http://www.w3.org/2000/svg" width="1280" height="1280">
<path d="M0 0 C3.87038043 1.62601781 6.72024572 4.14407782 9.890625 6.859375 C11.32236559 8.05560692 12.75602054 9.24955065 14.19140625 10.44140625 C15.29476318 11.35913818 15.29476318 11.35913818 16.42041016 12.29541016 C19.90215319 15.14007155 23.48753676 17.84185972 27.078125 20.546875 C33.70817284 25.56282916 40.14919962 30.77157818 46.54223633 36.08520508 C51.73708776 40.39367407 57.03195715 44.53478464 62.40234375 48.62109375 C66.0060932 51.37351143 69.54303279 54.20712171 73.078125 57.046875 C77.93401622 60.94665176 82.80312776 64.82762131 87.703125 68.671875 C88.27812744 69.12312744 88.85312988 69.57437988 89.44555664 70.03930664 C92.3167617 72.29101866 95.19069711 74.53920035 98.06640625 76.78515625 C104.33136031 81.68476278 110.54309523 86.64080427 116.703125 91.671875 C121.48455121 95.5761639 126.29485648 99.42812617 131.203125 103.171875 C136.52488619 107.23218168 141.76340854 111.38490271 146.98242188 115.57617188 C151.20438821 118.96502666 155.44372342 122.33019552 159.703125 125.671875 C160.27812744 126.12312744 160.85312988 126.57437988 161.44555664 127.03930664 C164.3167617 129.29101866 167.19069711 131.53920035 170.06640625 133.78515625 C176.33136031 138.68476278 182.54309523 143.64080427 188.703125 148.671875 C193.48455121 152.5761639 198.29485648 156.42812617 203.203125 160.171875 C208.52488619 164.23218168 213.76340854 168.38490271 218.98242188 172.57617188 C223.20438821 175.96502666 227.44372342 179.33019552 231.703125 182.671875 C232.27812744 183.12312744 232.85312988 183.57437988 233.44555664 184.03930664 C236.3167617 186.29101866 239.19069711 188.53920035 242.06640625 190.78515625 C248.33136031 195.68476278 254.54309523 200.64080427 260.703125 205.671875 C265.48455121 209.5761639 270.29485648 213.42812617 275.203125 217.171875 C280.52488619 221.23218168 285.76340854 225.38490271 290.98242188 229.57617188 C295.20438821 232.96502666 299.44372342 236.33019552 303.703125 239.671875 C304.27812744 240.12312744 304.85312988 240.57437988 305.44555664 241.03930664 C308.3167617 243.29101866 311.19069711 245.53920035 314.06640625 247.78515625 C320.33136031 252.68476278 326.54309523 257.64080427 332.703125 262.671875 C337.48455121 266.5761639 342.29485648 270.42812617 347.203125 274.171875 C352.52488619 278.23218168 357.76340854 282.38490271 362.98242188 286.57617188 C367.20438821 289.96502666 371.44372342 293.33019552 375.703125 296.671875 C376.27812744 297.12312744 376.85312988 297.57437988 377.44555664 298.03930664 C380.3167617 300.29101866 383.19069711 302.53920035 386.06640625 304.78515625 C392.33136031 309.68476278 398.54309523 314.64080427 404.703125 319.671875 C409.48455121 323.5761639 414.29485648 327.42812617 419.203125 331.171875 C424.52488619 335.23218168 429.76340854 339.38490271 434.98242188 343.57617188 C439.20438821 346.96502666 443.44372342 350.33019552 447.703125 353.671875 C448.27812744 354.12312744 448.85312988 354.57437988 449.44555664 355.03930664 C452.3167617 357.29101866 455.19069711 359.53920035 458.06640625 361.78515625 C464.33136031 366.68476278 470.54309523 371.64080427 476.703125 376.671875 C481.48455121 380.5761639 486.29485648 384.42812617 491.203125 388.171875 C496.52488619 392.23218168 501.76340854 396.38490271 506.98242188 400.57617188 C511.20438821 403.96502666 515.44372342 407.33019552 519.703125 410.671875 C520.27812744 411.12312744 520.85312988 411.57437988 521.44555664 412.03930664 C524.3167617 414.29101866 527.19069711 416.53920035 530.06640625 418.78515625 C536.33136031 423.68476278 542.54309523 428.64080427 548.703125 433.671875 C553.48455121 437.5761639 558.29485648 441.42812617 563.203125 445.171875 C568.52488619 449.23218168 573.76340854 453.38490271 578.98242188 457.57617188 C583.20438821 460.96502666 587.44372342 464.33019552 591.703125 467.671875 C592.27812744 468.12312744 592.85312988 468.57437988 593.44555664 469.03930664 C596.3167617 471.29101866 599.19069711 473.53920035 602.06640625 475.78515625 C608.37782867 480.72149429 614.62861843 485.72048868 620.828125 490.796875 C626.94499301 495.8019201 633.1671417 500.56970769 639.640625 505.109375 C639.29635418 507.91987676 638.75102727 509.00119411 636.69921875 511.01171875 C635.40177734 512.01912109 635.40177734 512.01912109 634.078125 513.046875 C633.08683594 513.82933594 632.09554688 514.61179687 631.07421875 515.41796875 C630.52620605 515.84577637 629.97819336 516.27358398 629.41357422 516.71435547 C626.1221722 519.3041477 622.88653944 521.96297793 619.640625 524.609375 C618.25538365 525.73459087 616.86996969 526.85959427 615.484375 527.984375 C612.36433313 530.51940902 609.25033046 533.0616645 606.140625 535.609375 C598.29372835 542.03702727 590.41285138 548.4229599 582.53808594 554.81640625 C575.1974182 560.7766311 567.86124466 566.74187938 560.546875 572.734375 C556.22016705 576.27017935 551.88088721 579.79046565 547.54296875 583.3125 C543.73617153 586.40416833 539.93415388 589.50142363 536.140625 592.609375 C528.29372835 599.03702727 520.41285138 605.4229599 512.53808594 611.81640625 C502.82798887 619.69894041 502.82798887 619.69894041 493.140625 627.609375 C485.29372835 634.03702727 477.41285138 640.4229599 469.53808594 646.81640625 C462.1974182 652.7766311 454.86124466 658.74187938 447.546875 664.734375 C443.22016705 668.27017935 438.88088721 671.79046565 434.54296875 675.3125 C430.73617153 678.40416833 426.93415388 681.50142363 423.140625 684.609375 C415.29372835 691.03702727 407.41285138 697.4229599 399.53808594 703.81640625 C392.1974182 709.7766311 384.86124466 715.74187938 377.546875 721.734375 C373.91757183 724.70025716 370.27926815 727.65496464 366.640625 730.609375 C359.60543189 736.32327943 359.60543189 736.32327943 352.578125 742.046875 C351.38509766 743.01947266 351.38509766 743.01947266 350.16796875 744.01171875 C346.9602327 746.67409009 343.7987786 749.38851295 340.640625 752.109375 C340.90166016 752.71072266 341.16269531 753.31207031 341.43164062 753.93164062 C358.19266254 792.76672293 369.03880017 832.90815762 372.640625 875.109375 C372.75277344 876.31078125 372.86492188 877.5121875 372.98046875 878.75 C380.64857399 975.80930471 348.60224537 1072.46368477 283.8269043 1150.29052734 C271.76112592 1164.3272267 258.965139 1178.35081742 244.640625 1190.109375 C244.11484863 1190.54894531 243.58907227 1190.98851562 243.04736328 1191.44140625 C222.69357042 1208.44959591 201.08514138 1223.39611518 177.72949219 1235.97460938 C175.8352937 1237.0036223 173.95867461 1238.0575929 172.0859375 1239.125 C134.5646444 1260.05524513 90.11377758 1272.94775851 47.640625 1278.109375 C46.93302032 1278.19551056 46.22541565 1278.28164612 45.49636841 1278.37039185 C30.35479 1280.1556159 15.31313091 1280.47155278 0.078125 1280.421875 C-1.11313995 1280.41971985 -2.30440491 1280.4175647 -3.5317688 1280.41534424 C-20.97411208 1280.36472438 -38.12410239 1280.04243147 -55.359375 1277.109375 C-57.22094238 1276.79540771 -57.22094238 1276.79540771 -59.12011719 1276.47509766 C-113.27279235 1267.17066102 -166.37608887 1248.27133803 -211.359375 1216.109375 C-211.96894043 1215.67560547 -212.57850586 1215.24183594 -213.20654297 1214.79492188 C-225.50900457 1206.00067059 -237.59537384 1196.91503524 -248.6640625 1186.59375 C-250.79402354 1184.63048156 -252.95096446 1182.73001339 -255.14453125 1180.83984375 C-259.58928589 1176.96425999 -263.76459223 1172.85173125 -267.921875 1168.671875 C-268.99598633 1167.60356445 -268.99598633 1167.60356445 -270.09179688 1166.51367188 C-274.72039729 1161.87664817 -279.11556684 1157.10001413 -283.359375 1152.109375 C-283.90311768 1151.47233643 -284.44686035 1150.83529785 -285.00708008 1150.17895508 C-349.06862857 1074.58766188 -380.84705239 976.72906391 -373.609375 877.859375 C-370.080604 835.53358309 -361.05905632 790.17554962 -341.359375 752.109375 C-346.91288708 747.00487028 -352.54293869 742.07458696 -358.46484375 737.40234375 C-362.10034089 734.52240202 -365.69913669 731.59876315 -369.296875 728.671875 C-370.34029053 727.82351074 -370.34029053 727.82351074 -371.40478516 726.95800781 C-376.09510328 723.142642 -380.77616366 719.31610237 -385.453125 715.484375 C-389.08242784 712.51849311 -392.72066832 709.56370668 -396.359375 706.609375 C-400.86581708 702.95051327 -405.36913604 699.28812499 -409.859375 695.609375 C-417.00791776 689.75376747 -424.18544326 683.93382121 -431.359375 678.109375 C-439.40108392 671.58038884 -447.44044285 665.04898206 -455.453125 658.484375 C-459.08242784 655.51849311 -462.72066832 652.56370668 -466.359375 649.609375 C-470.86581708 645.95051327 -475.36913604 642.28812499 -479.859375 638.609375 C-487.00791776 632.75376747 -494.18544326 626.93382121 -501.359375 621.109375 C-509.40108392 614.58038884 -517.44044285 608.04898206 -525.453125 601.484375 C-529.08242784 598.51849311 -532.72066832 595.56370668 -536.359375 592.609375 C-540.86581708 588.95051327 -545.36913604 585.28812499 -549.859375 581.609375 C-557.00791776 575.75376747 -564.18544326 569.93382121 -571.359375 564.109375 C-579.40755789 557.57513269 -587.45295829 551.03794952 -595.47265625 544.46875 C-601.05508078 539.90611885 -606.6551903 535.36522006 -612.25244141 530.82080078 C-614.36573766 529.10420672 -616.47795269 527.38629121 -618.58984375 525.66796875 C-619.27925049 525.1073877 -619.96865723 524.54680664 -620.67895508 523.96923828 C-622.03512637 522.86580874 -623.39045141 521.76133819 -624.74487305 520.65576172 C-627.66603144 518.27539608 -630.59414352 515.91230149 -633.5859375 513.62109375 C-634.50117187 512.91597656 -635.41640625 512.21085938 -636.359375 511.484375 C-637.143125 510.89398438 -637.926875 510.30359375 -638.734375 509.6953125 C-639.270625 509.17195313 -639.806875 508.64859375 -640.359375 508.109375 C-640.359375 507.119375 -640.359375 506.129375 -640.359375 505.109375 C-638.078125 503.0859375 -638.078125 503.0859375 -634.859375 500.734375 C-633.65979881 499.84337576 -632.46196009 498.95003382 -631.265625 498.0546875 C-630.62882813 497.5793457 -629.99203125 497.10400391 -629.3359375 496.61425781 C-625.94200153 494.03023838 -622.65561941 491.31613778 -619.359375 488.609375 C-614.5584905 484.68220922 -609.72942623 480.80751615 -604.796875 477.046875 C-600.12254904 473.48053742 -595.50603779 469.85331035 -590.921875 466.171875 C-586.06592347 462.27217239 -581.19687318 458.39112943 -576.296875 454.546875 C-575.72187256 454.09562256 -575.14687012 453.64437012 -574.55444336 453.17944336 C-571.6832383 450.92773134 -568.80930289 448.67954965 -565.93359375 446.43359375 C-559.66863969 441.53398722 -553.45690477 436.57794573 -547.296875 431.546875 C-542.51544879 427.6425861 -537.70514352 423.79062383 -532.796875 420.046875 C-528.12254904 416.48053742 -523.50603779 412.85331035 -518.921875 409.171875 C-514.06592347 405.27217239 -509.19687318 401.39112943 -504.296875 397.546875 C-503.72187256 397.09562256 -503.14687012 396.64437012 -502.55444336 396.17944336 C-499.6832383 393.92773134 -496.80930289 391.67954965 -493.93359375 389.43359375 C-487.66863969 384.53398722 -481.45690477 379.57794573 -475.296875 374.546875 C-470.51544879 370.6425861 -465.70514352 366.79062383 -460.796875 363.046875 C-456.12254904 359.48053742 -451.50603779 355.85331035 -446.921875 352.171875 C-442.06592347 348.27217239 -437.19687318 344.39112943 -432.296875 340.546875 C-431.72187256 340.09562256 -431.14687012 339.64437012 -430.55444336 339.17944336 C-427.6832383 336.92773134 -424.80930289 334.67954965 -421.93359375 332.43359375 C-415.66863969 327.53398722 -409.45690477 322.57794573 -403.296875 317.546875 C-398.51544879 313.6425861 -393.70514352 309.79062383 -388.796875 306.046875 C-384.12254904 302.48053742 -379.50603779 298.85331035 -374.921875 295.171875 C-370.06592347 291.27217239 -365.19687318 287.39112943 -360.296875 283.546875 C-359.72187256 283.09562256 -359.14687012 282.64437012 -358.55444336 282.17944336 C-355.6832383 279.92773134 -352.80930289 277.67954965 -349.93359375 275.43359375 C-343.66863969 270.53398722 -337.45690477 265.57794573 -331.296875 260.546875 C-326.51544879 256.6425861 -321.70514352 252.79062383 -316.796875 249.046875 C-312.12254904 245.48053742 -307.50603779 241.85331035 -302.921875 238.171875 C-298.06592347 234.27217239 -293.19687318 230.39112943 -288.296875 226.546875 C-287.72187256 226.09562256 -287.14687012 225.64437012 -286.55444336 225.17944336 C-283.6832383 222.92773134 -280.80930289 220.67954965 -277.93359375 218.43359375 C-271.66863969 213.53398722 -265.45690477 208.57794573 -259.296875 203.546875 C-254.51544879 199.6425861 -249.70514352 195.79062383 -244.796875 192.046875 C-240.12254904 188.48053742 -235.50603779 184.85331035 -230.921875 181.171875 C-226.06592347 177.27217239 -221.19687318 173.39112943 -216.296875 169.546875 C-215.72187256 169.09562256 -215.14687012 168.64437012 -214.55444336 168.17944336 C-211.6832383 165.92773134 -208.80930289 163.67954965 -205.93359375 161.43359375 C-199.66863969 156.53398722 -193.45690477 151.57794573 -187.296875 146.546875 C-182.51544879 142.6425861 -177.70514352 138.79062383 -172.796875 135.046875 C-168.12254904 131.48053742 -163.50603779 127.85331035 -158.921875 124.171875 C-154.06592347 120.27217239 -149.19687318 116.39112943 -144.296875 112.546875 C-143.72187256 112.09562256 -143.14687012 111.64437012 -142.55444336 111.17944336 C-139.6832383 108.92773134 -136.80930289 106.67954965 -133.93359375 104.43359375 C-127.66863969 99.53398722 -121.45690477 94.57794573 -115.296875 89.546875 C-110.51544879 85.6425861 -105.70514352 81.79062383 -100.796875 78.046875 C-96.12254904 74.48053742 -91.50603779 70.85331035 -86.921875 67.171875 C-82.06592347 63.27217239 -77.19687318 59.39112943 -72.296875 55.546875 C-71.43437134 54.86999634 -71.43437134 54.86999634 -70.55444336 54.17944336 C-67.6832383 51.92773134 -64.80930289 49.67954965 -61.93359375 47.43359375 C-55.66863969 42.53398722 -49.45690477 37.57794573 -43.296875 32.546875 C-38.51545097 28.64258788 -33.70519244 24.79055842 -28.796875 21.046875 C-22.68015305 16.38106088 -16.66891396 11.59174531 -10.671875 6.7734375 C-10.10339844 6.32258789 -9.53492188 5.87173828 -8.94921875 5.40722656 C-7.4989755 4.22333634 -6.11236512 2.96257127 -4.734375 1.6953125 C-2.359375 0.109375 -2.359375 0.109375 0 0 Z " fill="#356AC3" transform="translate(640.359375,-0.109375)"/>
<path d="M0 0 C0.53496094 0.39751465 1.06992187 0.7950293 1.62109375 1.20458984 C17.88150044 13.31703308 32.94938359 26.89389856 47.3125 41.1875 C47.97040527 41.84073242 48.62831055 42.49396484 49.30615234 43.16699219 C53.73916074 47.61456443 57.9262311 52.22226702 62 57 C62.55002686 57.64332275 63.10005371 58.28664551 63.66674805 58.94946289 C72.39201316 69.22982755 80.45367805 79.82799794 88 91 C88.67361572 91.98806641 88.67361572 91.98806641 89.36083984 92.99609375 C98.07746944 105.84366164 105.6095367 119.35697388 113 133 C113.61319092 134.12704346 113.61319092 134.12704346 114.23876953 135.27685547 C136.30284433 176.23585612 148.06266862 223.86777947 152 270 C152.11214844 271.20140625 152.22429688 272.4028125 152.33984375 273.640625 C160.00794899 370.69992971 127.96162037 467.35430977 63.1862793 545.18115234 C51.12050092 559.2178517 38.324514 573.24144242 24 585 C23.21133545 585.65935547 23.21133545 585.65935547 22.40673828 586.33203125 C2.05294542 603.34022091 -19.55548362 618.28674018 -42.91113281 630.86523438 C-44.8053313 631.8942473 -46.68195039 632.9482179 -48.5546875 634.015625 C-86.0759806 654.94587013 -130.52684742 667.83838351 -173 673 C-173.70760468 673.08613556 -174.41520935 673.17227112 -175.14425659 673.26101685 C-190.285835 675.0462409 -205.32749409 675.36217778 -220.5625 675.3125 C-222.34939743 675.30926727 -222.34939743 675.30926727 -224.1723938 675.30596924 C-241.61473708 675.25534938 -258.76472739 674.93305647 -276 672 C-277.24104492 671.79068848 -278.48208984 671.58137695 -279.76074219 671.36572266 C-333.91341735 662.06128602 -387.01671387 643.16196303 -432 611 C-432.60956543 610.56623047 -433.21913086 610.13246094 -433.84716797 609.68554688 C-446.14962957 600.89129559 -458.23599884 591.80566024 -469.3046875 581.484375 C-471.43464854 579.52110656 -473.59158946 577.62063839 -475.78515625 575.73046875 C-480.22991089 571.85488499 -484.40521723 567.74235625 -488.5625 563.5625 C-489.27857422 562.85029297 -489.99464844 562.13808594 -490.73242188 561.40429688 C-495.36102229 556.76727317 -499.75619184 551.99063913 -504 547 C-504.54374268 546.36296143 -505.08748535 545.72592285 -505.64770508 545.06958008 C-569.70925357 469.47828688 -601.48767739 371.61968891 -594.25 272.75 C-590.36943544 226.2046255 -579.23642691 178.27997778 -557.015625 136.91357422 C-555.91707991 134.84376739 -554.86318654 132.7546411 -553.8125 130.66015625 C-541.26304705 105.87426333 -525.78640683 82.68758972 -507.5012207 61.77246094 C-506.34302127 60.40499828 -505.21424224 59.01258223 -504.09838867 57.61035156 C-498.61725561 50.73656768 -492.75057995 44.46961119 -486.5065918 38.30078125 C-484.93017322 36.74275872 -483.36204482 35.17674193 -481.79492188 33.609375 C-476.36888176 28.20181333 -470.87115886 22.92719954 -465 18 C-464.39824951 17.49146484 -463.79649902 16.98292969 -463.17651367 16.45898438 C-407.0045383 -30.61275525 -338.93031807 -60.60591426 -266.15234375 -69.609375 C-264.21873552 -69.84897949 -262.2861206 -70.09701168 -260.35546875 -70.359375 C-172.43997586 -82.28974883 -75.96689295 -55.30356387 0 0 Z " fill="#A0C3FE" transform="translate(861,605)"/>
<path d="M0 0 C0 175.89 0 351.78 0 533 C-11.22 533.66 -22.44 534.32 -34 535 C-79.88011563 540.22212698 -123.45337341 551.66749972 -165 572 C-165.96679688 572.47308594 -166.93359375 572.94617188 -167.9296875 573.43359375 C-196.81726626 587.72248995 -223.62103936 605.90925139 -247.41796875 627.6640625 C-249.50283619 629.55022094 -251.61306743 631.39130467 -253.7421875 633.2265625 C-258.319115 637.22488415 -262.64345948 641.45138405 -266.9375 645.75 C-267.73164307 646.54494873 -268.52578613 647.33989746 -269.34399414 648.15893555 C-274.17799032 653.04362234 -278.72015155 657.97084956 -282.94921875 663.390625 C-284.85413664 665.81440624 -286.84158926 668.14418869 -288.86694336 670.4675293 C-304.49131974 688.48589663 -317.05775899 708.76256899 -328.5 729.625 C-328.98025635 730.5005957 -329.4605127 731.37619141 -329.95532227 732.27832031 C-333.25658826 738.3967208 -336.19491302 744.639876 -339 751 C-343.2386348 750.14774579 -345.71297408 747.93866714 -348.875 745.125 C-353.48828413 741.11596151 -358.16727266 737.24168412 -363 733.5 C-368.14952231 729.50019143 -373.15356022 725.36605062 -378.10546875 721.125 C-381.9924941 717.81208736 -385.9673774 714.6335169 -390 711.5 C-395.14877299 707.49918743 -400.1535141 703.36609011 -405.10546875 699.125 C-408.99249614 695.81208562 -412.96740506 692.63355562 -417 689.5 C-422.23824648 685.42895569 -427.33780962 681.2265902 -432.38232422 676.91845703 C-436.37920978 673.50916874 -440.44717693 670.20596542 -444.5625 666.94140625 C-448.03091355 664.17890379 -451.45430343 661.36254718 -454.8828125 658.55078125 C-458.57910602 655.52224436 -462.28999827 652.51171492 -466 649.5 C-470.50647495 645.84117903 -475.00976129 642.17874979 -479.5 638.5 C-486.64854276 632.64439247 -493.82606826 626.82444621 -501 621 C-509.04170892 614.47101384 -517.08106785 607.93960706 -525.09375 601.375 C-528.72305284 598.40911811 -532.36129332 595.45433168 -536 592.5 C-540.50644208 588.84113827 -545.00976104 585.17874999 -549.5 581.5 C-556.64854276 575.64439247 -563.82606826 569.82444621 -571 564 C-579.04818289 557.46575769 -587.09358329 550.92857452 -595.11328125 544.359375 C-600.69570578 539.79674385 -606.2958153 535.25584506 -611.89306641 530.71142578 C-614.00636266 528.99483172 -616.11857769 527.27691621 -618.23046875 525.55859375 C-618.91987549 524.9980127 -619.60928223 524.43743164 -620.31958008 523.85986328 C-621.67575137 522.75643374 -623.03107641 521.65196319 -624.38549805 520.54638672 C-627.30665644 518.16602108 -630.23476852 515.80292649 -633.2265625 513.51171875 C-634.14179687 512.80660156 -635.05703125 512.10148438 -636 511.375 C-636.78375 510.78460938 -637.5675 510.19421875 -638.375 509.5859375 C-638.91125 509.06257813 -639.4475 508.53921875 -640 508 C-640 507.01 -640 506.02 -640 505 C-637.71875 502.9765625 -637.71875 502.9765625 -634.5 500.625 C-633.30042381 499.73400076 -632.10258509 498.84065882 -630.90625 497.9453125 C-630.26945313 497.4699707 -629.63265625 496.99462891 -628.9765625 496.50488281 C-625.58262653 493.92086338 -622.29624441 491.20676278 -619 488.5 C-614.1991155 484.57283422 -609.37005123 480.69814115 -604.4375 476.9375 C-599.76317404 473.37116242 -595.14666279 469.74393535 -590.5625 466.0625 C-585.70654847 462.16279739 -580.83749818 458.28175443 -575.9375 454.4375 C-575.36249756 453.98624756 -574.78749512 453.53499512 -574.19506836 453.07006836 C-571.3238633 450.81835634 -568.44992789 448.57017465 -565.57421875 446.32421875 C-559.30926469 441.42461222 -553.09752977 436.46857073 -546.9375 431.4375 C-542.15607379 427.5332111 -537.34576852 423.68124883 -532.4375 419.9375 C-527.76317404 416.37116242 -523.14666279 412.74393535 -518.5625 409.0625 C-513.70654847 405.16279739 -508.83749818 401.28175443 -503.9375 397.4375 C-503.36249756 396.98624756 -502.78749512 396.53499512 -502.19506836 396.07006836 C-499.3238633 393.81835634 -496.44992789 391.57017465 -493.57421875 389.32421875 C-487.30926469 384.42461222 -481.09752977 379.46857073 -474.9375 374.4375 C-470.15607379 370.5332111 -465.34576852 366.68124883 -460.4375 362.9375 C-455.76317404 359.37116242 -451.14666279 355.74393535 -446.5625 352.0625 C-441.70654847 348.16279739 -436.83749818 344.28175443 -431.9375 340.4375 C-431.36249756 339.98624756 -430.78749512 339.53499512 -430.19506836 339.07006836 C-427.3238633 336.81835634 -424.44992789 334.57017465 -421.57421875 332.32421875 C-415.30926469 327.42461222 -409.09752977 322.46857073 -402.9375 317.4375 C-398.15607379 313.5332111 -393.34576852 309.68124883 -388.4375 305.9375 C-383.76317404 302.37116242 -379.14666279 298.74393535 -374.5625 295.0625 C-369.70654847 291.16279739 -364.83749818 287.28175443 -359.9375 283.4375 C-359.36249756 282.98624756 -358.78749512 282.53499512 -358.19506836 282.07006836 C-355.3238633 279.81835634 -352.44992789 277.57017465 -349.57421875 275.32421875 C-343.30926469 270.42461222 -337.09752977 265.46857073 -330.9375 260.4375 C-326.15607379 256.5332111 -321.34576852 252.68124883 -316.4375 248.9375 C-311.76317404 245.37116242 -307.14666279 241.74393535 -302.5625 238.0625 C-297.70654847 234.16279739 -292.83749818 230.28175443 -287.9375 226.4375 C-287.36249756 225.98624756 -286.78749512 225.53499512 -286.19506836 225.07006836 C-283.3238633 222.81835634 -280.44992789 220.57017465 -277.57421875 218.32421875 C-271.30926469 213.42461222 -265.09752977 208.46857073 -258.9375 203.4375 C-254.15607379 199.5332111 -249.34576852 195.68124883 -244.4375 191.9375 C-239.76317404 188.37116242 -235.14666279 184.74393535 -230.5625 181.0625 C-225.70654847 177.16279739 -220.83749818 173.28175443 -215.9375 169.4375 C-215.36249756 168.98624756 -214.78749512 168.53499512 -214.19506836 168.07006836 C-211.3238633 165.81835634 -208.44992789 163.57017465 -205.57421875 161.32421875 C-199.30926469 156.42461222 -193.09752977 151.46857073 -186.9375 146.4375 C-182.15607379 142.5332111 -177.34576852 138.68124883 -172.4375 134.9375 C-167.76317404 131.37116242 -163.14666279 127.74393535 -158.5625 124.0625 C-153.70654847 120.16279739 -148.83749818 116.28175443 -143.9375 112.4375 C-143.36249756 111.98624756 -142.78749512 111.53499512 -142.19506836 111.07006836 C-139.3238633 108.81835634 -136.44992789 106.57017465 -133.57421875 104.32421875 C-127.30926469 99.42461222 -121.09752977 94.46857073 -114.9375 89.4375 C-110.15607379 85.5332111 -105.34576852 81.68124883 -100.4375 77.9375 C-95.76317404 74.37116242 -91.14666279 70.74393535 -86.5625 67.0625 C-81.70654847 63.16279739 -76.83749818 59.28175443 -71.9375 55.4375 C-71.07499634 54.76062134 -71.07499634 54.76062134 -70.19506836 54.07006836 C-67.3238633 51.81835634 -64.44992789 49.57017465 -61.57421875 47.32421875 C-55.30926469 42.42461222 -49.09752977 37.46857073 -42.9375 32.4375 C-38.15607597 28.53321288 -33.34581744 24.68118342 -28.4375 20.9375 C-22.32077805 16.27168588 -16.30953896 11.48237031 -10.3125 6.6640625 C-9.74789062 6.21192383 -9.18328125 5.75978516 -8.6015625 5.29394531 C-7.11720575 4.09469367 -5.65147673 2.87248471 -4.1875 1.6484375 C-2 0 -2 0 0 0 Z " fill="#4185F4" transform="translate(640,0)"/>
<path d="M0 0 C0.53496094 0.39751465 1.06992187 0.7950293 1.62109375 1.20458984 C17.88150044 13.31703308 32.94938359 26.89389856 47.3125 41.1875 C47.97040527 41.84073242 48.62831055 42.49396484 49.30615234 43.16699219 C53.73916074 47.61456443 57.9262311 52.22226702 62 57 C62.55002686 57.64332275 63.10005371 58.28664551 63.66674805 58.94946289 C72.39201316 69.22982755 80.45367805 79.82799794 88 91 C88.67361572 91.98806641 88.67361572 91.98806641 89.36083984 92.99609375 C116 132.25994163 116 132.25994163 116 142 C-106.75 142 -329.5 142 -559 142 C-549.72040707 122.28086502 -549.72040707 122.28086502 -544.625 113.875 C-544.06756104 112.9454248 -543.51012207 112.01584961 -542.93579102 111.05810547 C-532.26568097 93.39017523 -520.27533081 76.80827297 -507 61 C-506.19175781 60.00613281 -505.38351562 59.01226563 -504.55078125 57.98828125 C-498.04597349 50.09077746 -490.97954292 42.79114139 -483.75 35.5625 C-483.27841461 35.09000824 -482.80682922 34.61751648 -482.32095337 34.13070679 C-476.72468577 28.53565585 -471.0516621 23.10052771 -465 18 C-464.09507812 17.23490112 -464.09507812 17.23490112 -463.171875 16.4543457 C-406.98556058 -30.60621405 -338.93845593 -60.60490751 -266.15234375 -69.609375 C-264.21873552 -69.84897949 -262.2861206 -70.09701168 -260.35546875 -70.359375 C-172.43997586 -82.28974883 -75.96689295 -55.30356387 0 0 Z " fill="#76A7F9" transform="translate(861,605)"/>
</svg>
